<svg xmlns="http://www.w3.org/2000/svg" enable-background="new 0 0 4500 3000" viewBox="0 0 4500 3000" id="MusicalBandperforming"><polygon fill="#f6d9ad" fill-rule="evenodd" points="3630.6 2143.7 3658.8 2251.7 3638.9 2285.9 3732.6 2282.4 3752.1 2251.8 3735.1 2113.1" clip-rule="evenodd" class="colorf6cbad svgShape"></polygon><path fill="#8526fe" fill-rule="evenodd" d="M3752.1,2251.8c-31.2,24.4-62.7,25.2-93.3,2.1l-152.2,54.3c-18.2,6.5-14.5,31.4,0.1,31.1l269-6.1
		C3776.7,2272.7,3752.7,2279.1,3752.1,2251.8z" clip-rule="evenodd" class="color00347f svgShape"></path><polygon fill="#f6d9ad" fill-rule="evenodd" points="3004 2053.6 2975.6 2161.5 2941.5 2181.6 3024.8 2224.6 3056.8 2207.4 3110.1 2078.3" clip-rule="evenodd" class="colorf6cbad svgShape"></polygon><path fill="#8526fe" fill-rule="evenodd" d="M3056.8,2207.4c-39.1,6-67-8.8-82.3-44l-159.2-27.4c-19-3.3-28.1,20.2-15.1,27.1l237.3,126.7
		C3068,2237.7,3043.9,2231.5,3056.8,2207.4z" clip-rule="evenodd" class="color00347f svgShape"></path><path fill="#f6d9ad" fill-rule="evenodd" d="M3325.3,1130.5l-248.6-217.2c-15-1.2-52.3,36.5-57.4,46.2c38.7,65.2,136,266.4,218.9,325.2
		c230.4,163.4,349-331,250.1-365.5C3365.1,876.2,3381.3,1182.3,3325.3,1130.5z" clip-rule="evenodd" class="colorf6cbad svgShape"></path><path fill="#f89500" fill-rule="evenodd" d="M3724.5,1310l-12.5,451.5l44,387.2c-16.4,41.3-115.8,45.1-166.1,16.4l-61.2-357.5l-4.4-278.9L3287,1711.2
		l-174.2,432.5c-51.6,19.1-117.9-38.9-138.7-63.7l132.8-475.8l306.5-327.1L3724.5,1310z" clip-rule="evenodd" class="colorf8c800 svgShape"></path><path fill="#e88c00" fill-rule="evenodd" d="M3185.8,1585.6c36.7,25.4,75.4,47.9,115.6,67.3c14.1,5.1,28.3,9.9,42.6,14.4l180.3-138.7l2.8,174.7
		c13,0.8,26.1,1.5,39.1,1.9c48.9,1.6,98.1,2.6,147.3,2.2l11.1-397.6l-311-32.9l-261,278.5
		C3163.4,1565.9,3174.4,1575.9,3185.8,1585.6z" clip-rule="evenodd" class="colore8ab00 svgShape"></path><path fill="#e28d0d" fill-rule="evenodd" d="M3708.4,1302c-21.5,53.3-302.4,74.3-304.1,4.6c-0.8-35.2,43.2-94,38.4-133.1c-11.5-93.8-40.2-194.2,7.5-252.2
		c9.4-11.4,30-26.4,43.4-28.6c10-3.6,93.1,2.5,101.1,9.3C3724.5,1013.7,3713.4,1289.6,3708.4,1302z" clip-rule="evenodd" class="colore2480d svgShape"></path><path fill="#ce7c00" fill-rule="evenodd" d="M3638.7,953.4c0.2,42.2-9.3,81.7-28.7,118.6c-13.3,41-36.1,76.5-68.4,106.4c-30,32.2-65.4,55-106.4,68.4
		c-5.2,2.7-10.5,5.3-15.8,7.6c-8.3,19.4-15.5,37.8-15.1,52.2c1.7,69.6,282.5,48.7,304.1-4.6
		C3712.7,1291.3,3721.7,1081.4,3638.7,953.4z" clip-rule="evenodd" class="colorce3000 svgShape"></path><path fill="#f6d9ad" fill-rule="evenodd" d="M3502,900.8c0,0,20.1-8.7-14.5-57.4c-5.3-7.5-19.2-2.5-20.8-8.6c-4.3-16.2,11.8-40.6,4.9-59.5
		c-4.9-13.2,18.4-21.9,35.8-26.1c28.7-6.9,78.4,10.9,60.8,75.4c-4.2,15.5-24.2,32.1-23.6,76C3545,930.8,3493.6,919.3,3502,900.8z" clip-rule="evenodd" class="colorf6cbad svgShape"></path><path fill="#8526fe" fill-rule="evenodd" d="M3471.2,776.4c11.2,8,48.9-32,61.4,19.3c0.9,3.9,1.6,17.3,19.1,9.4c17.5-7.9,15.5,20,0.1,16.2
		c-15.4-3.8-2.9,31.9,3.8,28.7c2.9-1.3,7.3-18.9,19.9-29.1c19.4-15.8,40.6-52.6,0.6-80.6c-39-64.8-102-36.5-120.2-9.8
		C3442.8,749.6,3447.3,762.5,3471.2,776.4z" clip-rule="evenodd" class="color00347f svgShape"></path><path fill="none" stroke="#38007f" stroke-linecap="round" stroke-linejoin="round" stroke-miterlimit="10" stroke-width="1.323" d="M3524,829.8c0,0,6.4,35.2-24.5,9.1" clip-rule="evenodd" class="colorStroke00347f svgStroke"></path><rect width="58.1" height="11.7" x="2943.8" y="846.3" fill="#f89500" fill-rule="evenodd" clip-rule="evenodd" transform="rotate(-41.253 2972.65 852.193)" class="colorf8c800 svgShape"></rect><path fill="#8526fe" fill-rule="evenodd" d="M2963.1,860.8c4.6,5.2,4,13.1-1.2,17.7c-5.2,4.6-13.1,4-17.7-1.2s-4-13.1,1.2-17.7
			C2950.6,855.1,2958.5,855.6,2963.1,860.8z" clip-rule="evenodd" class="color00347f svgShape"></path><rect width="58.1" height="11.7" x="2971.8" y="878.3" fill="#f89500" fill-rule="evenodd" clip-rule="evenodd" transform="rotate(-41.253 3000.67 884.142)" class="colorf8c800 svgShape"></rect><path fill="#8526fe" fill-rule="evenodd" d="M2991.1,892.7c4.6,5.2,4,13.1-1.2,17.7c-5.2,4.6-13.1,4-17.7-1.2c-4.6-5.2-4-13.1,1.2-17.7
			C2978.6,887,2986.5,887.5,2991.1,892.7z" clip-rule="evenodd" class="color00347f svgShape"></path><rect width="58.1" height="11.7" x="3003.8" y="793.7" fill="#f89500" fill-rule="evenodd" clip-rule="evenodd" transform="rotate(138.747 3032.844 799.615)" class="colorf8c800 svgShape"></rect><path fill="#8526fe" fill-rule="evenodd" d="M3042.6,791c4.6,5.2,12.5,5.7,17.7,1.2c5.2-4.6,5.7-12.5,1.2-17.7c-4.6-5.2-12.5-5.7-17.7-1.2
			C3038.6,777.9,3038.1,785.8,3042.6,791z" clip-rule="evenodd" class="color00347f svgShape"></path><rect width="58.1" height="11.7" x="3031.8" y="825.6" fill="#f89500" fill-rule="evenodd" clip-rule="evenodd" transform="rotate(138.747 3060.866 831.572)" class="colorf8c800 svgShape"></rect><path fill="#8526fe" fill-rule="evenodd" d="M3070.6 822.9c4.6 5.2 12.5 5.7 17.7 1.2 5.2-4.6 5.7-12.5 1.2-17.7-4.6-5.2-12.5-5.7-17.7-1.2C3066.6 809.8 3066.1 817.8 3070.6 822.9zM3301.9 1374.9c0 0 84.1 32.4 102.7 72.8 18.6 40.4 55.8 139.1 129.8 137.3 74-1.9 173.5-67.9 163.5-171.8-8.9-92.1-102.1-105.4-114.6-112.7-22.9-13.4-49.3-51.4-58.7-95.6-9.4-44.3-73.3-111.2-100.2-111.8-26.8-.6-26.9 17.3-12.1 30.6 14.8 13.3 43.8 49.9 14.4 70.4-29.3 20.5-108 75.8-108 75.8s-38.5 23.2-60.9-9.6c-22.5-32.8-63.3-76.9-77-54.3C3167.1 1228.4 3196.5 1325.5 3301.9 1374.9z" clip-rule="evenodd" class="color00347f svgShape"></path><polygon fill="#f89500" points="3426.6 1361.2 3478 1316.2 3092.5 876.6 3048 916.8" class="colorf8c800 svgShape"></polygon><path fill="#8526fe" d="M3045.4,919.2l48.3-43.8c4-3.7,3.9-10-0.4-13.5l-103.6-84.1c-3.4-2.8-8.3-2.6-11.6,0.3l-15.3,13.9
			c-3.2,2.9-3.9,7.6-1.6,11.3l70.5,114C3034.8,922,3041.3,922.9,3045.4,919.2z" class="color00347f svgShape"></path><path fill="#f89500" fill-rule="evenodd" d="M3517.2 1339.6l-72.5 63.6c-2.9 2.5-7.3 2.3-9.9-.6l-10.5-12c-2.5-2.9-2.3-7.3.6-9.9l72.5-63.6c2.9-2.5 7.3-2.3 9.9.6l10.5 12C3520.4 1332.6 3520.1 1337 3517.2 1339.6zM3619.5 1440.9l-87.7 76.9c-2.9 2.5-7.3 2.3-9.9-.6l-21.2-24.2c-2.5-2.9-2.3-7.3.6-9.9l87.7-76.9c2.9-2.5 7.3-2.3 9.9.6l21.2 24.2C3622.7 1433.9 3622.4 1438.3 3619.5 1440.9z" clip-rule="evenodd" class="colorf8c800 svgShape"></path><line x1="3060.9" x2="3523.4" y1="905.2" y2="1454.8" fill="none" stroke="#e28d0d" stroke-linecap="round" stroke-linejoin="round" stroke-miterlimit="10" stroke-width=".496" clip-rule="evenodd" class="colorStrokee2480d svgStroke"></line><line x1="3073.9" x2="3543.2" y1="893.4" y2="1442.2" fill="none" stroke="#e28d0d" stroke-linecap="round" stroke-linejoin="round" stroke-miterlimit="10" stroke-width=".496" clip-rule="evenodd" class="colorStrokee2480d svgStroke"></line><line x1="3087" x2="3567.7" y1="881.5" y2="1424.9" fill="none" stroke="#e28d0d" stroke-linecap="round" stroke-linejoin="round" stroke-miterlimit="10" stroke-width=".496" clip-rule="evenodd" class="colorStrokee2480d svgStroke"></line><line x1="2989.8" x2="3084.6" y1="777.9" y2="856.5" fill="none" stroke="#ffffff" stroke-linecap="round" stroke-linejoin="round" stroke-miterlimit="10" stroke-width="1.323" clip-rule="evenodd" class="colorStrokeffffff svgStroke"></line><path fill="#ffffff" fill-rule="evenodd" d="M3587.3,1317.6l-56.7,50.7c-15,1.9-56.5,11-58.1,15.8c-2,5.8,37.4,7.5,34.9,10.9
		c-10.2,21.2-51.5,28.9-40.6,46.5c2.2,3.6,27.3,9.1,36.9,11.8c20.2,5.7,37.3,2.4,60-43l106.7-43.1L3587.3,1317.6z" clip-rule="evenodd" class="colorffffff svgShape"></path><path fill="#f6d9ad" fill-rule="evenodd" d="M3709 1202.1l-134.9 127.4c-11.4 26.5 36.1 62.8 56.5 53 80.3-29.6 187.6-72.8 241.5-159.1 107-171.2-224.6-374.9-277.4-321.2C3555.7 975.6 3768.5 1154.3 3709 1202.1zM3108.2 987.5L3048 901c-15.2-19.4-13-43.9-19.7-48.8-9.1-20.7-37.7-45.8-50.4-31.4-8.7 10.7 6.8 35.1 3.8 45.2-21.7 0-2 31 19.2 62.3l47.9 84L3108.2 987.5z" clip-rule="evenodd" class="colorf6cbad svgShape"></path><path fill="none" stroke="#ffffff" stroke-linecap="round" stroke-linejoin="round" stroke-miterlimit="10" stroke-width=".496" d="M3493.6,892.9c0,0-21,19.8-5.9,40.8c15.1,21,95.8,6.4,72.6-38.6" clip-rule="evenodd" class="colorStrokeffffff svgStroke"></path><line x1="3108.2" x2="3337.5" y1="987.5" y2="1256.6" fill="none" stroke="#38007f" stroke-linecap="round" stroke-linejoin="round" stroke-miterlimit="10" stroke-width="1.323" clip-rule="evenodd" class="colorStroke00347f svgStroke"></line><path fill="#d8a353" fill-rule="evenodd" d="M3851.4,1251.6c0,0-52-110.1,38.7-129.6C3890.1,1122,3913.9,1196.4,3851.4,1251.6z" clip-rule="evenodd" class="colorf4be99 svgShape"></path><line x1="3714.7" x2="3751" y1="1196" y2="1153.2" fill="none" stroke="#38007f" stroke-linecap="round" stroke-linejoin="round" stroke-miterlimit="10" stroke-width="1.323" clip-rule="evenodd" class="colorStroke00347f svgStroke"></line><line x1="3337.5" x2="3380.9" y1="1136.4" y2="1159.2" fill="none" stroke="#38007f" stroke-linecap="round" stroke-linejoin="round" stroke-miterlimit="10" stroke-width="1.323" clip-rule="evenodd" class="colorStroke00347f svgStroke"></line><line x1="3481.6" x2="3503.2" y1="1447.5" y2="1437.1" fill="none" stroke="#38007f" stroke-linecap="round" stroke-linejoin="round" stroke-miterlimit="10" stroke-width="1.323" clip-rule="evenodd" class="colorStroke00347f svgStroke"></line><line x1="3497" x2="3517.2" y1="1451.6" y2="1447.5" fill="none" stroke="#38007f" stroke-linecap="round" stroke-linejoin="round" stroke-miterlimit="10" stroke-width="1.323" clip-rule="evenodd" class="colorStroke00347f svgStroke"></line><line x1="2981.7" x2="2994.2" y1="866.1" y2="888.5" fill="none" stroke="#38007f" stroke-linecap="round" stroke-linejoin="round" stroke-miterlimit="10" stroke-width="1.323" clip-rule="evenodd" class="colorStroke00347f svgStroke"></line><path fill="none" stroke="#ffffff" stroke-linecap="round" stroke-linejoin="round" stroke-miterlimit="10" stroke-width="1.323" d="M3430.8,1093c0,0,49.4,16.7,88.9,96.7c0,0,6.3,51.2,32.4,79.3c20.3,27.5,31.7,33.3,46.8,37.1" clip-rule="evenodd" class="colorStrokeffffff svgStroke"></path><path fill="none" stroke="#38007f" stroke-linecap="round" stroke-linejoin="round" stroke-miterlimit="10" stroke-width="1.323" d="M2992.2,2098.5c0,0,34.6,38.8,89.6,48.5" clip-rule="evenodd" class="colorStroke00347f svgStroke"></path><line x1="3287" x2="3292.1" y1="1711.2" y2="1667.5" fill="none" stroke="#38007f" stroke-linecap="round" stroke-linejoin="round" stroke-miterlimit="10" stroke-width="1.323" clip-rule="evenodd" class="colorStroke00347f svgStroke"></line><path fill="none" stroke="#ffffff" stroke-linecap="round" stroke-linejoin="round" stroke-miterlimit="10" stroke-width="1.323" d="M3771.6,2295.5c0,0-39.2,2.7-35.6,38.6" clip-rule="evenodd" class="colorStrokeffffff svgStroke"></path><line x1="3739.1" x2="3494.5" y1="2314.8" y2="2322.7" fill="none" stroke="#ffffff" stroke-linecap="round" stroke-linejoin="round" stroke-miterlimit="10" stroke-width="1.323" clip-rule="evenodd" class="colorStrokeffffff svgStroke"></line><path fill="none" stroke="#ffffff" stroke-linecap="round" stroke-linejoin="round" stroke-miterlimit="10" stroke-width="1.323" d="M2995.9,2267.8c0,0,19.6-39.2,57.5-19.2" clip-rule="evenodd" class="colorStrokeffffff svgStroke"></path><line x1="2797.3" x2="3011.9" y1="2143.2" y2="2249.7" fill="none" stroke="#ffffff" stroke-linecap="round" stroke-linejoin="round" stroke-miterlimit="10" stroke-width="1.323" clip-rule="evenodd" class="colorStrokeffffff svgStroke"></line><path fill="none" stroke="#e28d0d" stroke-linecap="round" stroke-linejoin="round" stroke-miterlimit="10" stroke-width="1.323" d="M3601.7 2274.3c0 0 63-85 84.3-36.5C3707.2 2285.9 3601.7 2274.3 3601.7 2274.3zM3601.7 2274.3c0 0-104.9-13.8-72.9-56C3560.6 2176.4 3601.7 2274.3 3601.7 2274.3zM2926.3 2160.8c0 0 105.7-5.7 81.9 41.7C2984.6 2249.5 2926.3 2160.8 2926.3 2160.8zM2926.3 2160.8c0 0-56.3-89.6-3.4-91.8C2975.4 2066.8 2926.3 2160.8 2926.3 2160.8z" clip-rule="evenodd" class="colorStrokee2480d svgStroke"></path><line x1="3712.9" x2="3688.8" y1="1770.1" y2="1730.3" fill="none" stroke="#38007f" stroke-linecap="round" stroke-linejoin="round" stroke-miterlimit="10" stroke-width="1.323" clip-rule="evenodd" class="colorStroke00347f svgStroke"></line><path fill="none" stroke="#38007f" stroke-linecap="round" stroke-linejoin="round" stroke-miterlimit="10" stroke-width="1.323" d="M3506.6,895.4c0,0-8.6,7-5,12.2c3.6,5.2,12.6,19.8,38.6,5.7" clip-rule="evenodd" class="colorStroke00347f svgStroke"></path><path fill="none" stroke="#ffffff" stroke-linecap="round" stroke-linejoin="round" stroke-miterlimit="10" stroke-width=".661" d="M3380.9,1411.9l-173.5,160.9c0,0-41.1,31.3-63,121.6c-21.9,90.3-119.7,421.4-119.7,421.4" clip-rule="evenodd" class="colorStrokeffffff svgStroke"></path><path fill="none" stroke="#ffffff" stroke-linecap="round" stroke-linejoin="round" stroke-miterlimit="10" stroke-width=".661" d="M3425.9 1493.6L3263 1600.2c0 0-48.3 34.6-70.2 136.9-21.9 102.3-93.2 409.8-93.2 409.8M3572.4 1572.7l-4.7 197.4c0 0 1.3 61.1 17.7 115.9 16.4 54.8 77 297.6 77 297.6M3662.4 1537.2l-22 232.9c0 0 3.2 75.6 22 146.5s52.3 267 52.3 267" clip-rule="evenodd" class="colorStrokeffffff svgStroke"></path><path fill="none" stroke="#38007f" stroke-linecap="round" stroke-linejoin="round" stroke-miterlimit="10" stroke-width="1.323" d="M3640.4,2181.3c0,0,63.8,11.9,101.2-15.2" clip-rule="evenodd" class="colorStroke00347f svgStroke"></path><path fill="none" stroke="#ffffff" stroke-linecap="round" stroke-linejoin="round" stroke-miterlimit="10" stroke-width=".661" d="M3567.7,742.7c0,0-47.3-67.6-111.2,0" clip-rule="evenodd" class="colorStrokeffffff svgStroke"></path><line x1="3533.2" x2="3578.2" y1="1233.4" y2="1240.9" fill="none" stroke="#38007f" stroke-linecap="round" stroke-linejoin="round" stroke-miterlimit="10" stroke-width="1.323" clip-rule="evenodd" class="colorStroke00347f svgStroke"></line><circle cx="1150.9" cy="882.3" r="329.8" fill="none" stroke="#ffffff" stroke-miterlimit="10" stroke-width=".661" clip-rule="evenodd" opacity=".85" transform="rotate(-45.001 1150.932 882.36)" class="colorStrokeffffff svgStroke"></circle><defs><filter id="a" width="158.1" height="158.1" x="485.3" y="1153.5" filterUnits="userSpaceOnUse"><feFlood flood-color="#fff" flood-opacity="1" result="back"></feFlood><feBlend in="SourceGraphic" in2="back"></feBlend></filter></defs><mask id="c" width="158.1" height="158.1" x="485.3" y="1153.5" maskUnits="userSpaceOnUse"><g filter="url(#a)" fill="#000000" class="color000000 svgShape"><linearGradient id="b" x1="3051.151" x2="3351.907" y1="223.138" y2="223.138" gradientTransform="rotate(108.223 1482.086 -200.407)" gradientUnits="userSpaceOnUse"><stop offset=".095" stop-color="#ffffff" class="stopColorffffff svgShape"></stop><stop offset=".228" stop-color="#5fe4d4" class="stopColordfdfdf svgShape"></stop><stop offset=".519" stop-color="#ad59d4" class="stopColor8c8c8c svgShape"></stop><stop offset=".947" stop-color="#0a0a0a" class="stopColor0a0a0a svgShape"></stop><stop offset=".979"></stop></linearGradient><circle cx="564.4" cy="1232.5" r="79" fill="url(#b)" fill-rule="evenodd" clip-rule="evenodd" mask="url(#c)"></circle></g></mask><linearGradient id="d" x1="3051.151" x2="3351.907" y1="223.138" y2="223.138" gradientTransform="rotate(108.223 1482.086 -200.407)" gradientUnits="userSpaceOnUse"><stop offset=".095" stop-color="#ffffff" class="stopColorffffff svgShape"></stop><stop offset=".754" stop-color="#f2dffb" class="stopColorfbe0df svgShape"></stop><stop offset=".979" stop-color="#f9ead3" class="stopColorf9d4d3 svgShape"></stop></linearGradient><circle cx="564.4" cy="1232.5" r="79" fill="url(#d)" fill-rule="evenodd" clip-rule="evenodd" opacity=".5"></circle><path fill="#e28d0d" fill-rule="evenodd" d="M856.9 1227.8l-55.4 95.5-.9 1.6c-13.4 13.6-29.2 12.7-45.5 3.2-18.1-10.5-26.7-29.3-19.4-42 7.4-12.7 28-14.5 46-4 9.1 5.3 15.9 12.7 19.3 20.4l50.9-87.7 4.5-7.7 7.4-12.8c3.9-6.7 12.6-2.8 10 4.4-11.3 35.6 20.7 59.5-1.4 93.5C883.4 1263.9 857.7 1251.9 856.9 1227.8zM2065.2 682.7l46.5 69.4.8 1.2c4.8 13.6-1.1 24.1-12.9 32-13.1 8.8-28.8 8.5-34.9-.8-6.2-9.2-.5-23.8 12.6-32.6 6.6-4.4 13.9-6.6 20.3-6.4l-42.7-63.7-3.7-5.6-6.2-9.3c-3.3-4.9 2.3-9.5 6.3-5.3 20.5 19.5 47.3 5.6 63.1 32C2098.6 676.7 2081.9 690.2 2065.2 682.7zM3936.4 824.9l-68.6 47.6-1.1.8c-13.5 5-24.1-.7-32.2-12.4-9-13-8.9-28.6.2-34.9 9.1-6.3 23.8-.9 32.8 12.1 4.6 6.6 6.8 13.8 6.7 20.2l63-43.7 5.5-3.8 9.2-6.4c4.8-3.4 9.5 2.1 5.4 6.2-19.2 20.8-4.9 47.4-31 63.6C3942.9 858.1 3929.1 841.7 3936.4 824.9z" clip-rule="evenodd" class="colore2480d svgShape"></path><path fill="#ffffff" fill-rule="evenodd" d="M3424 557.9l-68.6 47.6-1.1.8c-13.5 5-24.1-.7-32.2-12.4-9-13-8.9-28.6.2-34.9 9.1-6.3 23.8-.9 32.8 12.1 4.6 6.6 6.8 13.8 6.7 20.2l63-43.7 5.5-3.8 9.2-6.4c4.8-3.4 9.5 2.1 5.4 6.2-19.2 20.8-4.9 47.4-31 63.6C3430.5 591.1 3416.8 574.6 3424 557.9zM2246.3 798.7l-2.8 49.4c0 .1 0 .3 0 .4 0 .1 0 .3 0 .4-2.3 7.4-8.3 10-15.9 9.5-8.5-.5-15.1-5.7-14.8-11.7.3-6 7.5-10.4 16-9.9 4.3.2 8.1 1.7 10.8 3.9l2.3-41.2.2-3.6.3-6c.1-1.4 1.2-2.7 2.5-2.9l49.9-8.4c1.3-.2 2.3.7 2.3 2.1l-.4 6.9-.2 2.8-2.8 49.2c0 .1 0 .3 0 .4 0 .1 0 .3 0 .4-2.4 7.4-8.3 10-15.9 9.5-8.5-.5-15.1-5.7-14.8-11.7.3-6 7.5-10.4 16-9.9 4.3.2 8.1 1.7 10.8 3.9l2.3-41.1L2246.3 798.7zM914.2 1032.4l31.6 38c.1.1.2.2.2.3.1.1.2.2.2.3 6.3 4.6 12.6 3.1 18.5-1.8 6.5-5.4 8.7-13.6 4.9-18.2-3.8-4.6-12.2-3.9-18.7 1.5-3.3 2.8-5.5 6.2-6.4 9.5l-26.4-31.7-2.3-2.8-3.9-4.6c-.9-1.1-2.6-1.4-3.8-.8l-45.1 22.9c-1.2.6-1.5 2-.6 3l4.4 5.3 1.8 2.1 31.5 37.9c.1.1.2.2.2.3.1.1.2.2.2.3 6.3 4.6 12.6 3.1 18.5-1.8 6.5-5.4 8.7-13.6 4.9-18.2-3.8-4.6-12.2-3.9-18.7 1.5-3.3 2.8-5.5 6.2-6.4 9.5l-26.3-31.6L914.2 1032.4z" clip-rule="evenodd" class="colorffffff svgShape"></path><path fill="#8526fe" fill-rule="evenodd" d="M2182.4 957.5l21.9 57.4c.1.1.1.3.2.4.1.1.1.3.2.4 1.1 9.6-4.3 15.5-13.2 18.9-9.9 3.8-20 1.2-22.6-5.7-2.6-6.9 3.2-15.6 13.1-19.3 5-1.9 10-2.2 14.2-1.1l-18.2-47.9-1.6-4.2-2.7-7c-.6-1.6 0-3.7 1.4-4.6l52.2-34.9c1.4-.9 3-.4 3.6 1.2l3 8 1.2 3.2 21.8 57.2c.1.1.1.3.2.4.1.1.1.3.2.4 1.1 9.6-4.3 15.5-13.2 18.9-9.9 3.8-20 1.2-22.6-5.7-2.6-6.9 3.2-15.6 13.1-19.3 5-1.9 10-2.2 14.2-1.1l-18.2-47.7L2182.4 957.5zM3278.3 873l21.9 57.4c.1.1.1.3.2.4.1.1.1.3.2.4 1.1 9.6-4.3 15.5-13.2 18.9-9.9 3.8-20 1.2-22.6-5.7-2.6-6.9 3.2-15.6 13.1-19.3 5-1.9 10-2.2 14.2-1.1l-18.2-47.9-1.6-4.2-2.7-7c-.6-1.6 0-3.7 1.4-4.6l52.2-34.9c1.4-.9 3-.4 3.6 1.2l3 8 1.2 3.2 21.8 57.2c.1.1.1.3.2.4.1.1.1.3.2.4 1.1 9.6-4.3 15.5-13.2 18.9-9.9 3.8-20 1.2-22.6-5.7-2.6-6.9 3.2-15.6 13.1-19.3 5-1.9 10-2.2 14.2-1.1l-18.2-47.7L3278.3 873z" clip-rule="evenodd" class="color00347f svgShape"></path><g fill="#000000" class="color000000 svgShape"><circle cx="1360.3" cy="1715.1" r="197.4" fill="none" stroke="#ffffff" stroke-miterlimit="10" stroke-width=".661" clip-rule="evenodd" opacity=".85" transform="rotate(-45.001 1360.305 1715.094)" class="colorStrokeffffff svgStroke"></circle><defs><filter id="e" width="86.3" height="86.3" x="1559" y="1373.3" filterUnits="userSpaceOnUse"><feFlood flood-color="#fff" flood-opacity="1" result="back"></feFlood><feBlend in="SourceGraphic" in2="back"></feBlend></filter></defs><mask id="g" width="86.3" height="86.3" x="1559" y="1373.3" maskUnits="userSpaceOnUse"><g filter="url(#e)" fill="#000000" class="color000000 svgShape"><linearGradient id="f" x1="2937.27" x2="3101.353" y1="-820.105" y2="-820.105" gradientTransform="rotate(108.223 1482.086 -200.407)" gradientUnits="userSpaceOnUse"><stop offset=".095" stop-color="#ffffff" class="stopColorffffff svgShape"></stop><stop offset=".228" stop-color="#5fe4d4" class="stopColordfdfdf svgShape"></stop><stop offset=".519" stop-color="#ad59d4" class="stopColor8c8c8c svgShape"></stop><stop offset=".947" stop-color="#0a0a0a" class="stopColor0a0a0a svgShape"></stop><stop offset=".979"></stop></linearGradient><circle cx="1602.1" cy="1416.5" r="43.1" fill="url(#f)" fill-rule="evenodd" clip-rule="evenodd" mask="url(#g)"></circle></g></mask><linearGradient id="h" x1="2937.27" x2="3101.353" y1="-820.105" y2="-820.105" gradientTransform="rotate(108.223 1482.086 -200.407)" gradientUnits="userSpaceOnUse"><stop offset=".095" stop-color="#ffffff" class="stopColorffffff svgShape"></stop><stop offset=".754" stop-color="#f2dffb" class="stopColorfbe0df svgShape"></stop><stop offset=".979" stop-color="#f9ead3" class="stopColorf9d4d3 svgShape"></stop></linearGradient><circle cx="1602.1" cy="1416.5" r="43.1" fill="url(#h)" fill-rule="evenodd" clip-rule="evenodd" opacity=".5"></circle><defs><filter id="i" width="86.3" height="86.3" x="3189.7" y="1197.7" filterUnits="userSpaceOnUse"><feFlood flood-color="#fff" flood-opacity="1" result="back"></feFlood><feBlend in="SourceGraphic" in2="back"></feBlend></filter></defs><mask id="k" width="86.3" height="86.3" x="3189.7" y="1197.7" maskUnits="userSpaceOnUse"><g filter="url(#i)" fill="#000000" class="color000000 svgShape"><linearGradient id="j" x1="2260.462" x2="2424.545" y1="-2314.258" y2="-2314.258" gradientTransform="rotate(108.223 1482.086 -200.407)" gradientUnits="userSpaceOnUse"><stop offset=".095" stop-color="#ffffff" class="stopColorffffff svgShape"></stop><stop offset=".228" stop-color="#5fe4d4" class="stopColordfdfdf svgShape"></stop><stop offset=".519" stop-color="#ad59d4" class="stopColor8c8c8c svgShape"></stop><stop offset=".947" stop-color="#0a0a0a" class="stopColor0a0a0a svgShape"></stop><stop offset=".979"></stop></linearGradient><path fill="url(#j)" fill-rule="evenodd" d="M3219.4,1281.8c-22.6-7.4-34.9-31.8-27.5-54.4c7.4-22.6,31.8-34.9,54.4-27.5c22.6,7.4,34.9,31.8,27.5,54.4
				C3266.4,1277,3242,1289.3,3219.4,1281.8z" clip-rule="evenodd" mask="url(#k)"></path></g></mask><linearGradient id="l" x1="2260.462" x2="2424.545" y1="-2314.258" y2="-2314.258" gradientTransform="rotate(108.223 1482.086 -200.407)" gradientUnits="userSpaceOnUse"><stop offset=".095" stop-color="#ffffff" class="stopColorffffff svgShape"></stop><stop offset=".754" stop-color="#f2dffb" class="stopColorfbe0df svgShape"></stop><stop offset=".979" stop-color="#f9ead3" class="stopColorf9d4d3 svgShape"></stop></linearGradient><path fill="url(#l)" fill-rule="evenodd" d="M3219.4,1281.8c-22.6-7.4-34.9-31.8-27.5-54.4c7.4-22.6,31.8-34.9,54.4-27.5c22.6,7.4,34.9,31.8,27.5,54.4
		C3266.4,1277,3242,1289.3,3219.4,1281.8z" clip-rule="evenodd" opacity=".5"></path><defs><filter id="m" width="1110.8" height="555.4" x="935.3" y="1779.3" filterUnits="userSpaceOnUse"><feFlood flood-color="#fff" flood-opacity="1" result="back"></feFlood><feBlend in="SourceGraphic" in2="back"></feBlend></filter></defs><mask id="o" width="1110.8" height="555.4" x="935.3" y="1779.3" maskUnits="userSpaceOnUse"><g filter="url(#m)" fill="#000000" class="color000000 svgShape"><linearGradient id="n" x1="1490.752" x2="1490.752" y1="1809.91" y2="2485.426" gradientUnits="userSpaceOnUse"><stop offset=".095" stop-color="#ffffff" class="stopColorffffff svgShape"></stop><stop offset=".228" stop-color="#5fe4d4" class="stopColordfdfdf svgShape"></stop><stop offset=".519" stop-color="#ad59d4" class="stopColor8c8c8c svgShape"></stop><stop offset=".947" stop-color="#0a0a0a" class="stopColor0a0a0a svgShape"></stop><stop offset=".979"></stop></linearGradient><path fill="url(#n)" fill-rule="evenodd" d="M935.3,2334.7c0-306.7,248.7-555.4,555.4-555.4s555.4,248.7,555.4,555.4h-219.4
				c0-185.6-150.5-336.1-336.1-336.1s-336,150.5-336,336.1H935.3z" clip-rule="evenodd" mask="url(#o)"></path></g></mask><linearGradient id="p" x1="1490.752" x2="1490.752" y1="1809.91" y2="2485.426" gradientUnits="userSpaceOnUse"><stop offset=".095" stop-color="#ffffff" class="stopColorffffff svgShape"></stop><stop offset=".754" stop-color="#f2dffb" class="stopColorfbe0df svgShape"></stop><stop offset=".979" stop-color="#f9ead3" class="stopColorf9d4d3 svgShape"></stop></linearGradient><path fill="url(#p)" fill-rule="evenodd" d="M935.3,2334.7c0-306.7,248.7-555.4,555.4-555.4s555.4,248.7,555.4,555.4h-219.4
		c0-185.6-150.5-336.1-336.1-336.1s-336,150.5-336,336.1H935.3z" clip-rule="evenodd" opacity=".5"></path></g><g fill="#000000" class="color000000 svgShape"><path fill="#f6d9ad" fill-rule="evenodd" d="M1844.5,1975.9c-8.9,87.5-8.8,191.8-14.8,283.1c8.5,50.5,38,34.5,96.2,53.1c-110.9,13.2-209.4,19.9-187.3-49.7
		c-2.6-83.6-8.8-154.2-21.6-286L1844.5,1975.9z" clip-rule="evenodd" class="colorf6cbad svgShape"></path><path fill="#e28d0d" fill-rule="evenodd" d="M1821.3,1528c58.8,45.3,73.9,431.1,49.5,657.5c-41.7,11.5-140.1,30.4-184,8.2c-7-183.8-12.5-320.9-2.9-459.9
		c-90.3-0.1-129.5-3.4-216.1-25c-108.1-27-126.2-28.8-109.4-146C1385.9,1557.7,1750.5,1473.5,1821.3,1528z" clip-rule="evenodd" class="colore2480d svgShape"></path><path fill="#ce7c00" fill-rule="evenodd" d="M1569.6,1728.7c18.2-23.1,36.5-46.1,54.5-69.4c41.3-41,89.9-69.3,145.9-85c24.3-3.3,48.6-6.5,73-9.8
		c-6.4-17.7-13.6-30.3-21.7-36.5c-70.8-54.5-435.4,29.7-462.9,34.7c-16.8,117.2,1.2,119,109.4,146
		C1508.8,1719,1539.3,1725.1,1569.6,1728.7z" clip-rule="evenodd" class="colorce3000 svgShape"></path><path fill="#f6d9ad" fill-rule="evenodd" d="M1247.5,1383.8l-166.3,58.8c-44.1,15.6-93-10.8-101.9-56.7c-3-15.5-1.3-32.2,9-48.8
		c38-61.4,185.8-109.1,185.8-109.1l73.5,45.7V1383.8z" clip-rule="evenodd" class="colorf6cbad svgShape"></path><path fill="#e88c00" fill-rule="evenodd" d="M1438.6,1322.5c41.9-36.2,51.4-224.8-12.3-221.1c-40.8,2.4-92.6,38.4-130.3,55.1
		c-77.8,34.3-118.7,61.7-120.5,62.8c-12.7,29.9,17.3,158.2,72,164.5L1438.6,1322.5z" clip-rule="evenodd" class="colore8ab00 svgShape"></path><path fill="#f6d9ad" fill-rule="evenodd" d="M1196 974.8c2.9 8.8 23.1-11.5 27.2-3.2 2.8 8.4-18.8 30.4-34.1 42.8l-60.5 298.7c-23.2 85.7-156.7 95.4-150.6 51.4 24.9-179.2 145.7-367.3 145.7-367.3.6-34.5-11.4-30.8-2-41.2 32.5-35.8 82.2-21.9 84.8-17.3C1212.4 949 1199.9 961.5 1196 974.8zM1706.9 1383.8l166.3 58.8c44.1 15.6 93-10.8 101.9-56.7 3-15.5 1.3-32.2-9-48.8-38-61.4-185.8-109.1-185.8-109.1l-73.5 45.7V1383.8z" clip-rule="evenodd" class="colorf6cbad svgShape"></path><polygon fill="#8526fe" fill-rule="evenodd" points="1625.2 2339.3 1642.5 2339.3 1560.3 2148.3 1542.9 2148.3" clip-rule="evenodd" class="color00347f svgShape"></polygon><polygon fill="#8526fe" fill-rule="evenodd" points="1340.2 2339.3 1322.8 2339.3 1405.1 2148.3 1422.4 2148.3" clip-rule="evenodd" class="color00347f svgShape"></polygon><polygon fill="#8526fe" fill-rule="evenodd" points="1411.9 2132.3 1552.4 2132.3 1560.3 2148.3 1405.3 2148.3" clip-rule="evenodd" class="color00347f svgShape"></polygon><path fill="#e88c00" fill-rule="evenodd" d="M1515.8,1322.5c-41.9-36.2-51.4-224.8,12.3-221.1c40.8,2.4,92.6,38.4,130.3,55.1
		c77.8,34.3,118.7,61.7,120.5,62.8c12.7,29.9-17.3,158.2-72,164.5L1515.8,1322.5z" clip-rule="evenodd" class="colore8ab00 svgShape"></path><path fill="#e28d0d" fill-rule="evenodd" d="M1738.5,2262.4c31.1,22.2,62.1,22.3,91.5,0l150.5,47.7c18,5.7,14.9,29.1,0.5,29.1h-264
		C1714.8,2282.6,1738.5,2288.1,1738.5,2262.4z" clip-rule="evenodd" class="colore2480d svgShape"></path><path fill="none" stroke="#ffffff" stroke-linecap="round" stroke-linejoin="round" stroke-miterlimit="10" stroke-width=".496" d="M1354,1598.5c0,0,374-32,384.5-30.3c10.5,1.8,82.2-5.5,91.1,96.7c8.9,102.3,0,530,0,530" clip-rule="evenodd" class="colorStrokeffffff svgStroke"></path><path fill="none" stroke="#ffffff" stroke-linecap="round" stroke-linejoin="round" stroke-miterlimit="10" stroke-width=".496" d="M1359.7,1659.7l342.5,21.7c0,0,61.5-9,61.5,108.7c0,117.8-17.3,413.9-17.3,413.9" clip-rule="evenodd" class="colorStrokeffffff svgStroke"></path><path fill="#f6d9ad" fill-rule="evenodd" d="M856.5,1826.1c-22.6,85-59.5,182.5-86.2,270c-25.8,44.3-47.7,18.8-108.7,15.7c99,51.6,188.9,92.6,192.7,19.8
		c32-77.3,62.7-141.1,121.3-259.9L856.5,1826.1z" clip-rule="evenodd" class="colorf6cbad svgShape"></path><path fill="#e28d0d" fill-rule="evenodd" d="M854.3 2131.5c-36.9 9.8-65.9-1.1-85.6-32.4l-157.6-8.6c-18.8-1-24.3 22-10.8 27.1l246.9 93.3C869.4 2158.8 845.2 2155.5 854.3 2131.5zM1036.6 1415.3c-71 21.6-225.9 400.9-283 621.3 34.9 25.5 115.3 49.9 164.2 44.6 71.5-169.5 140.1-289.3 180.3-422.7 84.5 31.8 152.5 80.8 241.2 91.2 110.7 13 92.3-22.7 118-138.3C1433.3 1597 1122.1 1389.4 1036.6 1415.3z" clip-rule="evenodd" class="colore2480d svgShape"></path><path fill="#ce7c00" fill-rule="evenodd" d="M1036.6,1415.3c-8.6,2.6-18.5,10.6-29.3,22.8c26.2,18.5,48.1,41.3,65.7,68.4c29.2,31.9,49,69.4,59.2,112.5
		c4.6,19.1,7.9,38.6,10.6,58.2c65.2,29.6,124,63.9,196.5,72.5c110.7,13,92.3-22.7,118-138.3
		C1433.3,1597,1122.1,1389.4,1036.6,1415.3z" clip-rule="evenodd" class="colorce3000 svgShape"></path><path fill="none" stroke="#ffffff" stroke-linecap="round" stroke-linejoin="round" stroke-miterlimit="10" stroke-width=".496" d="M1449,1647.8L1116.2,1475c0,0-83-36.7-126.8,55.6l-205.6,522.9" clip-rule="evenodd" class="colorStrokeffffff svgStroke"></path><path fill="none" stroke="#ffffff" stroke-linecap="round" stroke-linejoin="round" stroke-miterlimit="10" stroke-width=".496" d="M1433.1,1723.1l-297.6-127.5c0,0-95.7-49.6-126.4,46.4c-30.7,96-140.3,435-140.3,435" clip-rule="evenodd" class="colorStrokeffffff svgStroke"></path><path fill="#f89500" fill-rule="evenodd" d="M1287,1509.7c27.4-42,42.3-79.9,64-140.4c2.3-19.2-14.7-144.8,23.7-220c26.6-32.9,21.9-32.2,49.9-47.9
		c7.1-4,47.7-10.1,68-8.3c22.1,2,57.1,16.2,67.2,26.3c99.1,81.2,18.1,357.7,47.2,410.8C1570.7,1598.5,1348,1598.6,1287,1509.7z" clip-rule="evenodd" class="colorf8c800 svgShape"></path><path fill="#f6d9ad" fill-rule="evenodd" d="M1520.2,1098.2c0,0-27.5-4.8-6.9-52.4c3.2-7.4,15.8-5.6,16.1-11c0.7-14.6-17.3-32.4-14.8-49.7
		c1.8-12.1-19.6-15.3-35.1-15.8c-25.6-0.8-64.7,23.3-38.1,75c6.4,12.4,10.8,28.9,18.1,66.3C1463.2,1142.5,1539.3,1138,1520.2,1098.2
		z" clip-rule="evenodd" class="colorf6cbad svgShape"></path><path fill="#8526fe" fill-rule="evenodd" d="M1516.2,981.3c-10.3,6.1-51-19.8-51.1,28.1c0,3.6,2.3,15.6-14.8,12.4c-17.1-3.2-9.4,20.9,3.4,14.3
		c11.8,11.2,11.3,31.7,8,49.1c-37.7-27-91.5-80.5-37.1-120.9c8.1-50.3,85.4-32.2,113.1-46.5C1548.5,946.6,1542.3,959.8,1516.2,981.3
		z" clip-rule="evenodd" class="color00347f svgShape"></path><path fill="none" stroke="#38007f" stroke-linecap="round" stroke-linejoin="round" stroke-miterlimit="10" stroke-width="1.323" d="M1473.1,1045.9c1.5,0.9,9.2,27.7,31.7,3" clip-rule="evenodd" class="colorStroke00347f svgStroke"></path><polyline fill="none" stroke="#00347f" stroke-linecap="round" stroke-linejoin="round" stroke-miterlimit="10" stroke-width="1.323" points="1610.9 1316.4 1608.7 1353.1 1638.2 1364.5" clip-rule="evenodd"></polyline><path fill="none" stroke="#38007f" stroke-linecap="round" stroke-linejoin="round" stroke-miterlimit="10" stroke-width="1.323" d="M1520.2,1098.2c0,0,15.7,28.7-22.3,33.4c-38,4.7-42.9-24.4-41.6-36.9" clip-rule="evenodd" class="colorStroke00347f svgStroke"></path><path fill="#f6d9ad" fill-rule="evenodd" d="M1758.4,974.8c-2.9,8.8-23.1-11.5-27.2-3.2c-2.8,8.4,18.8,30.4,34.1,42.8l60.5,298.7
		c23.2,85.7,156.7,95.4,150.6,51.4c-24.9-179.2-145.7-367.3-145.7-367.3c-0.6-34.5,11.4-30.8,2-41.2c-32.5-35.8-82.2-21.9-84.8-17.3
		C1742,949,1754.5,961.5,1758.4,974.8z" clip-rule="evenodd" class="colorf6cbad svgShape"></path><rect width="71" height="21.5" x="1449.8" y="2110.8" fill="#ffffff" fill-rule="evenodd" clip-rule="evenodd" transform="rotate(-180 1485.299 2121.586)" class="colorffffff svgShape"></rect><rect width="17.4" height="323.1" x="1476.6" y="2016.2" fill="#ffffff" fill-rule="evenodd" clip-rule="evenodd" transform="rotate(-180 1485.299 2177.727)" class="colorffffff svgShape"></rect><polygon fill="#8526fe" fill-rule="evenodd" points="1148.6 2339.3 1166 2339.3 1083.7 2148.3 1066.4 2148.3" clip-rule="evenodd" class="color00347f svgShape"></polygon><polygon fill="#8526fe" fill-rule="evenodd" points="863.6 2339.3 846.2 2339.3 928.5 2148.3 945.9 2148.3" clip-rule="evenodd" class="color00347f svgShape"></polygon><polygon fill="#8526fe" fill-rule="evenodd" points="935.3 2132.3 1075.9 2132.3 1083.7 2148.3 928.8 2148.3" clip-rule="evenodd" class="color00347f svgShape"></polygon><rect width="71" height="21.5" x="973.2" y="2110.8" fill="#ffffff" fill-rule="evenodd" clip-rule="evenodd" transform="rotate(-180 1008.742 2121.586)" class="colorffffff svgShape"></rect><rect width="17.4" height="637" x="1000.1" y="1702.2" fill="#ffffff" fill-rule="evenodd" clip-rule="evenodd" transform="rotate(-180 1008.742 2020.739)" class="colorffffff svgShape"></rect><path fill="none" stroke="#ffffff" stroke-linecap="round" stroke-linejoin="round" stroke-miterlimit="10" stroke-width=".661" d="M1723.5 2295.5c0 0 27.9 6.5 22.1 43.7M1746.4 2324c-.2.8 246.6 3 246.6 3M856.8 2169.8c0 0-24.4-4.2-38.1 30.4M826.1 2186.2c-.3.4-231.2-87.4-231.2-87.4" clip-rule="evenodd" class="colorStrokeffffff svgStroke"></path><path fill="none" stroke="#38007f" stroke-linecap="round" stroke-linejoin="round" stroke-miterlimit="10" stroke-width="1.323" d="M1829.7 2259c0 0-33.5 46-91.1 3.4M854.3 2131.5c0 0-51.6 22.6-85.6-32.4" clip-rule="evenodd" class="colorStroke00347f svgStroke"></path><path fill="none" stroke="#ffffff" stroke-linecap="round" stroke-linejoin="round" stroke-miterlimit="10" stroke-width=".496" d="M1532.6 927.7c0 0-6.8 19-43.6 18.3-36.8-.8-52 20.2-52 20.2M1529.4 958.8c-2.3.4 2.4 12-31.8 10.5-34.2-1.5-44.3 14.4-44.7 15.6M1427.9 984.9c0 0-15.5 16.9 2.1 61" clip-rule="evenodd" class="colorStrokeffffff svgStroke"></path><circle cx="1481" cy="1790.1" r="286.9" fill="#f89500" fill-rule="evenodd" clip-rule="evenodd" transform="rotate(-45.001 1480.942 1790.115)" class="colorf8c800 svgShape"></circle><circle cx="1481" cy="1790.1" r="246.4" fill="#ffffff" fill-rule="evenodd" clip-rule="evenodd" transform="rotate(-45.001 1480.942 1790.115)" class="colorffffff svgShape"></circle><circle cx="1481" cy="1790.1" r="246.4" fill="none" stroke="#38007f" stroke-linecap="round" stroke-linejoin="round" stroke-miterlimit="10" stroke-width="1.323" clip-rule="evenodd" transform="rotate(-45.001 1480.942 1790.115)" class="colorStroke00347f svgStroke"></circle><circle cx="1489.7" cy="1790.1" r="164.3" fill="none" stroke="#e28d0d" stroke-linecap="round" stroke-linejoin="round" stroke-miterlimit="10" stroke-width="1.323" clip-rule="evenodd" transform="rotate(-45.001 1489.721 1790.115)" class="colorStrokee2480d svgStroke"></circle><line x1="1476.6" x2="1494" y1="2077" y2="2077" fill="none" stroke="#38007f" stroke-linecap="round" stroke-linejoin="round" stroke-miterlimit="10" stroke-width="1.323" clip-rule="evenodd" class="colorStroke00347f svgStroke"></line><path fill="#f89500" fill-rule="evenodd" d="M837.7,1532.6v146.8c0,23.1,76.7,41.8,171.3,41.8s171.3-18.7,171.3-41.8v-146.8H837.7z" clip-rule="evenodd" class="colorf8c800 svgShape"></path><ellipse cx="1009.1" cy="1532.6" fill="#8526fe" fill-rule="evenodd" clip-rule="evenodd" rx="171.3" ry="41.8" class="color00347f svgShape"></ellipse><ellipse cx="1006.1" cy="1530.6" fill="#ffffff" fill-rule="evenodd" clip-rule="evenodd" rx="156.1" ry="33.9" class="colorffffff svgShape"></ellipse><line x1="1009.1" x2="1009.1" y1="1574.4" y2="1721.2" fill="none" stroke="#38007f" stroke-linecap="round" stroke-linejoin="round" stroke-miterlimit="10" stroke-width="1.323" clip-rule="evenodd" class="colorStroke00347f svgStroke"></line><line x1="923.3" x2="923.3" y1="1568.2" y2="1715.8" fill="none" stroke="#38007f" stroke-linecap="round" stroke-linejoin="round" stroke-miterlimit="10" stroke-width="1.323" clip-rule="evenodd" class="colorStroke00347f svgStroke"></line><line x1="859.9" x2="859.9" y1="1553.5" y2="1700.3" fill="none" stroke="#38007f" stroke-linecap="round" stroke-linejoin="round" stroke-miterlimit="10" stroke-width="1.323" clip-rule="evenodd" class="colorStroke00347f svgStroke"></line><line x1="1098.9" x2="1098.9" y1="1568.2" y2="1715.8" fill="none" stroke="#38007f" stroke-linecap="round" stroke-linejoin="round" stroke-miterlimit="10" stroke-width="1.323" clip-rule="evenodd" class="colorStroke00347f svgStroke"></line><line x1="1162.2" x2="1162.2" y1="1553.5" y2="1700.3" fill="none" stroke="#38007f" stroke-linecap="round" stroke-linejoin="round" stroke-miterlimit="10" stroke-width="1.323" clip-rule="evenodd" class="colorStroke00347f svgStroke"></line><path fill="none" stroke="#38007f" stroke-linecap="round" stroke-linejoin="round" stroke-miterlimit="10" stroke-width="1.323" d="M837.7,1681.3c0,23.1,76.7,41.8,171.3,41.8s171.3-18.7,171.3-41.8" clip-rule="evenodd" class="colorStroke00347f svgStroke"></path><line x1="1000.1" x2="1000.1" y1="1723.1" y2="2110.8" fill="none" stroke="#38007f" stroke-linecap="round" stroke-linejoin="round" stroke-miterlimit="10" stroke-width="1.323" clip-rule="evenodd" class="colorStroke00347f svgStroke"></line><polygon fill="#8526fe" fill-rule="evenodd" points="2092.4 2339.3 2109.8 2339.3 2027.5 2148.3 2010.1 2148.3" clip-rule="evenodd" class="color00347f svgShape"></polygon><polygon fill="#8526fe" fill-rule="evenodd" points="1807.4 2339.3 1790 2339.3 1872.3 2148.3 1889.7 2148.3" clip-rule="evenodd" class="color00347f svgShape"></polygon><polygon fill="#8526fe" fill-rule="evenodd" points="1879.1 2132.3 2019.7 2132.3 2027.5 2148.3 1872.5 2148.3" clip-rule="evenodd" class="color00347f svgShape"></polygon><rect width="71" height="21.5" x="1917" y="2110.8" fill="#ffffff" fill-rule="evenodd" clip-rule="evenodd" transform="rotate(-180 1952.53 2121.586)" class="colorffffff svgShape"></rect><rect width="17.4" height="637" x="1943.8" y="1702.2" fill="#ffffff" fill-rule="evenodd" clip-rule="evenodd" transform="rotate(-180 1952.53 2020.739)" class="colorffffff svgShape"></rect><line x1="1943.8" x2="1943.8" y1="1721.2" y2="2110.8" fill="none" stroke="#38007f" stroke-linecap="round" stroke-linejoin="round" stroke-miterlimit="10" stroke-width="1.323" clip-rule="evenodd" class="colorStroke00347f svgStroke"></line><path fill="none" stroke="#38007f" stroke-linecap="round" stroke-linejoin="round" stroke-miterlimit="10" stroke-width="1.323" d="M1329.1,1546.7c0,0,117.1-91.1,277.9-16.5" clip-rule="evenodd" class="colorStroke00347f svgStroke"></path><path fill="#f89500" fill-rule="evenodd" d="M1767.8,1532.6v146.8c0,23.1,76.7,41.8,171.3,41.8c94.6,0,171.3-18.7,171.3-41.8v-146.8H1767.8z" clip-rule="evenodd" class="colorf8c800 svgShape"></path><ellipse cx="1939.2" cy="1532.6" fill="#8526fe" fill-rule="evenodd" clip-rule="evenodd" rx="171.3" ry="41.8" class="color00347f svgShape"></ellipse><ellipse cx="1936.2" cy="1530.6" fill="#ffffff" fill-rule="evenodd" clip-rule="evenodd" rx="156.1" ry="33.9" class="colorffffff svgShape"></ellipse><line x1="1939.2" x2="1939.2" y1="1574.4" y2="1721.2" fill="none" stroke="#38007f" stroke-linecap="round" stroke-linejoin="round" stroke-miterlimit="10" stroke-width="1.323" clip-rule="evenodd" class="colorStroke00347f svgStroke"></line><line x1="1853.4" x2="1853.4" y1="1568.2" y2="1715.8" fill="none" stroke="#38007f" stroke-linecap="round" stroke-linejoin="round" stroke-miterlimit="10" stroke-width="1.323" clip-rule="evenodd" class="colorStroke00347f svgStroke"></line><line x1="1790" x2="1790" y1="1553.5" y2="1700.3" fill="none" stroke="#38007f" stroke-linecap="round" stroke-linejoin="round" stroke-miterlimit="10" stroke-width="1.323" clip-rule="evenodd" class="colorStroke00347f svgStroke"></line><line x1="2029" x2="2029" y1="1568.2" y2="1715.8" fill="none" stroke="#38007f" stroke-linecap="round" stroke-linejoin="round" stroke-miterlimit="10" stroke-width="1.323" clip-rule="evenodd" class="colorStroke00347f svgStroke"></line><line x1="2092.3" x2="2092.3" y1="1553.5" y2="1700.3" fill="none" stroke="#38007f" stroke-linecap="round" stroke-linejoin="round" stroke-miterlimit="10" stroke-width="1.323" clip-rule="evenodd" class="colorStroke00347f svgStroke"></line><path fill="none" stroke="#38007f" stroke-linecap="round" stroke-linejoin="round" stroke-miterlimit="10" stroke-width="1.323" d="M1767.8 1681.3c0 23.1 76.7 41.8 171.3 41.8 94.6 0 171.3-18.7 171.3-41.8M729.3 2099.2c1.3-2.1 41.6-86.8 72.8-48.4S729.3 2099.2 729.3 2099.2zM729.3 2099.2c-2-1.4-84.9-45.3-45.2-74.9S729.3 2099.2 729.3 2099.2zM1879 2276.6c-.9-2.3-45.5-84.8 3.9-87.4S1879 2276.6 1879 2276.6zM1879 2276.6c-2.3.8-86.7 41.7-87.1-7.8C1791.4 2219.4 1879 2276.6 1879 2276.6z" clip-rule="evenodd" class="colorStroke00347f svgStroke"></path><path fill="none" stroke="#38007f" stroke-linecap="round" stroke-linejoin="round" stroke-miterlimit="10" stroke-width="1.323" d="M753.6 2250c25.4-11 33.3-78.4 0-107.5-33.3-29.1-24.2-43.3-24.2-43.3s-124.1 3.5-154.5-114.6M2004.1 2232.9c-43.8 68.2-125.1 43.7-125.1 43.7s6.9 83-43.6 112.2" clip-rule="evenodd" class="colorStroke00347f svgStroke"></path><path fill="#d8a353" fill-rule="evenodd" d="M984.3,1328.1c0,0,70.2,30.9,27,105.6c0,0-31.8-17.6-33.3-59.2C978,1374.6,978.7,1342.9,984.3,1328.1z" clip-rule="evenodd" class="colorf4be99 svgShape"></path><line x1="1143.6" x2="1100.6" y1="1238.9" y2="1257.1" fill="none" stroke="#38007f" stroke-linecap="round" stroke-linejoin="round" stroke-miterlimit="10" stroke-width="1.323" clip-rule="evenodd" class="colorStroke00347f svgStroke"></line><path fill="#d8a353" fill-rule="evenodd" d="M1881.9,1445.2c0,0,5-100.8,94.5-80.7C1976.4,1364.5,1975.6,1461.8,1881.9,1445.2z" clip-rule="evenodd" class="colorf4be99 svgShape"></path><line x1="1810.8" x2="1881.9" y1="1238.9" y2="1270.9" fill="none" stroke="#38007f" stroke-linecap="round" stroke-linejoin="round" stroke-miterlimit="10" stroke-width="1.323" clip-rule="evenodd" class="colorStroke00347f svgStroke"></line><rect width="11" height="227.7" x="1209.3" y="838.1" fill="#e28d0d" fill-rule="evenodd" clip-rule="evenodd" transform="rotate(49.819 1214.795 951.959)" class="colore2480d svgShape"></rect><path fill="#e28d0d" fill-rule="evenodd" d="M1317.1,886.2c-6.7,5.6-16.6,4.8-22.2-1.9c-5.6-6.7-4.8-16.6,1.9-22.2c6.7-5.6,16.6-4.8,22.2,1.9
			C1324.6,870.6,1323.8,880.6,1317.1,886.2z" clip-rule="evenodd" class="colore2480d svgShape"></path><rect width="11" height="227.7" x="1753.6" y="851.2" fill="#e28d0d" fill-rule="evenodd" clip-rule="evenodd" transform="rotate(105.854 1759 965.012)" class="colore2480d svgShape"></rect><path fill="#e28d0d" fill-rule="evenodd" d="M1638.7,947.3c8.4,2.4,17.1-2.5,19.5-10.9c2.4-8.4-2.5-17.1-10.9-19.5c-8.4-2.4-17.1,2.5-19.5,10.9
			C1625.5,936.1,1630.3,944.9,1638.7,947.3z" clip-rule="evenodd" class="colore2480d svgShape"></path><line x1="1196" x2="1131.3" y1="974.8" y2="1029.6" fill="none" stroke="#38007f" stroke-linecap="round" stroke-linejoin="round" stroke-miterlimit="10" stroke-width="1.323" clip-rule="evenodd" class="colorStroke00347f svgStroke"></line><line x1="1759.1" x2="1830.8" y1="970.7" y2="991.1" fill="none" stroke="#38007f" stroke-linecap="round" stroke-linejoin="round" stroke-miterlimit="10" stroke-width="1.323" clip-rule="evenodd" class="colorStroke00347f svgStroke"></line><path fill="none" stroke="#38007f" stroke-linecap="round" stroke-linejoin="round" stroke-miterlimit="10" stroke-width="1.323" d="M1168.3,932.6c0.3,0,0,46.6,0,46.6s-5.5,14.1-14.2,5.7l-7.8-46.6" clip-rule="evenodd" class="colorStroke00347f svgStroke"></path><path fill="none" stroke="#38007f" stroke-linecap="round" stroke-linejoin="round" stroke-miterlimit="10" stroke-width="1.323" d="M1153.7 982.3c0 0-8.2 12.7-16.9 5.3-8.7-7.5-17.4-28.7-17.4-28.7M1168.3 979.2c0 0 11.9 2.1 15.5-9.9 3.7-12 9.6-36.7 9.6-36.7M1763.2 933.3c0 0 2.1 27.9 10.7 30.3 8.6 2.4 16.7-30.3 16.7-30.3" clip-rule="evenodd" class="colorStroke00347f svgStroke"></path><path fill="none" stroke="#38007f" stroke-linecap="round" stroke-linejoin="round" stroke-miterlimit="10" stroke-width="1.323" d="M1784,952.8c0,0,0.1,21.6,10.9,16.7c10.8-4.9,17.6-29.1,17.6-29.1" clip-rule="evenodd" class="colorStroke00347f svgStroke"></path><path fill="none" stroke="#ffffff" stroke-linecap="round" stroke-linejoin="round" stroke-miterlimit="10" stroke-width=".661" d="M1214.8 1196.3c0 0-20.9 42.8-3.5 60.8 17.3 18 32 27.1 27.4 43.6s-16.9 27.6 8.9 39.8c25.8 12.2 15.9 38.2 15.9 38.2M1752.1 1203.2c0 0-59.1 14.3-45.2 42.6 13.9 28.3 26.6 46.6 3.8 62.1-22.8 15.5-39.3 6.4-23.7 36.5 15.5 30.1-6.1 31-6.1 31" clip-rule="evenodd" class="colorStrokeffffff svgStroke"></path><path fill="#ffffff" fill-rule="evenodd" d="M1442.3,1336c0,0-42-120.9-25.6-117.2c16.4,3.7,36.5,70.6,36.5,70.6s20.1-8.5,32.3,0c0,0,10.3-9.2,19.5,0
		c0,0,5.5-55.4,16.4-54.2c11,1.2,1.2,94.2-7.3,105.3C1514.6,1360.6,1467,1400.3,1442.3,1336z" clip-rule="evenodd" class="colorffffff svgShape"></path><path fill="none" stroke="#38007f" stroke-linecap="round" stroke-linejoin="round" stroke-miterlimit="10" stroke-width="1.323" d="M1453.2,1290.9c0,0,1.2,41.1,13.7,37.4c12.5-3.7,18.6-39,18.6-39" clip-rule="evenodd" class="colorStroke00347f svgStroke"></path><path fill="none" stroke="#38007f" stroke-linecap="round" stroke-linejoin="round" stroke-miterlimit="10" stroke-width="1.323" d="M1476.6 1318c0 0 6.4 35.2 18.9 10.6 12.5-24.6 9.4-39.2 9.4-39.2M1437.5 1321.8c1.1.7 17.2-6.3 26.5 6.5 7 9.7-17.7 16.9-17.7 16.9" clip-rule="evenodd" class="colorStroke00347f svgStroke"></path><line x1="1351.1" x2="1374.7" y1="1369.4" y2="1345.2" fill="none" stroke="#38007f" stroke-linecap="round" stroke-linejoin="round" stroke-miterlimit="10" stroke-width="1.323" clip-rule="evenodd" class="colorStroke00347f svgStroke"></line><line x1="2016.8" x2="2064.6" y1="1459.7" y2="1413.1" fill="none" stroke="#38007f" stroke-linecap="round" stroke-linejoin="round" stroke-miterlimit="10" stroke-width="1.323" clip-rule="evenodd" class="colorStroke00347f svgStroke"></line><line x1="1996.7" x2="2020.4" y1="1454" y2="1361.8" fill="none" stroke="#38007f" stroke-linecap="round" stroke-linejoin="round" stroke-miterlimit="10" stroke-width="1.323" clip-rule="evenodd" class="colorStroke00347f svgStroke"></line><line x1="851.6" x2="803.8" y1="1482.7" y2="1436.1" fill="none" stroke="#38007f" stroke-linecap="round" stroke-linejoin="round" stroke-miterlimit="10" stroke-width="1.323" clip-rule="evenodd" class="colorStroke00347f svgStroke"></line><line x1="916.8" x2="907.1" y1="1482.7" y2="1447.1" fill="none" stroke="#38007f" stroke-linecap="round" stroke-linejoin="round" stroke-miterlimit="10" stroke-width="1.323" clip-rule="evenodd" class="colorStroke00347f svgStroke"></line><line x1="783.7" x2="748.7" y1="1659.7" y2="1674.2" fill="none" stroke="#38007f" stroke-linecap="round" stroke-linejoin="round" stroke-miterlimit="10" stroke-width="1.323" clip-rule="evenodd" class="colorStroke00347f svgStroke"></line><line x1="871.7" x2="848" y1="1477" y2="1384.8" fill="none" stroke="#38007f" stroke-linecap="round" stroke-linejoin="round" stroke-miterlimit="10" stroke-width="1.323" clip-rule="evenodd" class="colorStroke00347f svgStroke"></line><path fill="none" stroke="#38007f" stroke-linecap="round" stroke-linejoin="round" stroke-miterlimit="10" stroke-width="1.323" d="M1516.4,1659.7c-5.5,3.5-161.9,146.1-111.1,152.4c50.8,6.3,226.1-112.6,171.4-50.4
		c-54.8,62.2-71.1,120.9-16.4,95.2" clip-rule="evenodd" class="colorStroke00347f svgStroke"></path></g><g fill="#000000" class="color000000 svgShape"><path fill="#f6d9ad" fill-rule="evenodd" d="M2548.7,909c0,0-94.5,56.5-33.9,243.9c29.7,91.9,90.2-10.7,90.2-10.7l4.6-20.5c0,0,8.4-133.1,6.5-141.4
		C2614,971.9,2548.7,909,2548.7,909z" clip-rule="evenodd" class="colorf6cbad svgShape"></path><path fill="#f6d9ad" fill-rule="evenodd" d="M2626.8,1228.5L2385.9,989c-30.6,7.8-36.2,18.3-32.6,32.2c41.1,84.5,116,228.6,221.3,302
			C2595.3,1337.6,2668.5,1300.7,2626.8,1228.5z" clip-rule="evenodd" class="colorf6cbad svgShape"></path><path fill="#f6d9ad" fill-rule="evenodd" d="M2409.4,1014.2l-42.2-54.9c1.4-14.4-1.7-37.5-12.1-48.4c-6.4-2.1,6,36.3-0.1,33.2
			c-15.4-7.6-25.5-67.9-32.3-63.2c-30,20.7,6.4,76.4,18,108.2c7.3,20.7,11.9,29.2,14.9,36.6L2409.4,1014.2z" clip-rule="evenodd" class="colorf6cbad svgShape"></path><path fill="#8526fe" fill-rule="evenodd" d="M2640.4,767.9c58.4,11.6,65.3-77.1,136.9-90c53.3-9.6,32.2-45.9,120.4-67.4c88.2-21.5,114.7,106.6,19.8,125.9
		c-94.9,19.3-113-18.6-162.4,15.5C2705.7,786.1,2644.6,784.5,2640.4,767.9z" clip-rule="evenodd" class="color00347f svgShape"></path><path fill="#e28d0d" fill-rule="evenodd" d="M2631.9,762.9c-7,3.3-8.8,14.1-4.1,24.1c4.7,10,14.2,15.5,21.2,12.2s8.8-14.1,4.1-24.1
		C2648.4,765.1,2638.9,759.6,2631.9,762.9z" clip-rule="evenodd" class="colore2480d svgShape"></path><path fill="#f6d9ad" fill-rule="evenodd" d="M2575.9,1267.4l-62.2,23.5l-103,327.2c-7.4,38.6-26,100.3-27.3,154.6c10.1,151.4,29.4,290.1,39.5,441.5
		c-6.4,40.6-48.4,75.1-93,90.3c85.1,10.3,167-65,149.8-120.7c-14-45.4,48.4-142,17.5-438c14.4-86.3,109.1-166.6,123.2-257.6
		L2575.9,1267.4z" clip-rule="evenodd" class="colorf6cbad svgShape"></path><path fill="#f6d9ad" fill-rule="evenodd" d="M2506.2,1287.6c9.2-28.2,19.2-57.6,30.4-89.9c7-23,3.7-64.8-0.3-83c3.3-15-41.6-85.4-3.7-157.5
		c15.8-30.2,11-49.6,24.5-55.6c4.5-2,11.6-5.8,17.2-6.8c16.1-2.9,32.4,0.2,38.5,0.8c5.5,1.4,53.1,8.8,60.5,13.5
		c45.4,29,48.9,88.1,38.5,146c-8.6,47.8-28.6,94.9-25.9,123.1c4.1,42.3,20.6,77.3,38.6,109.2L2506.2,1287.6z" clip-rule="evenodd" class="colorf6cbad svgShape"></path><path fill="#f6d9ad" fill-rule="evenodd" d="M2571.8,896.3c0,0,16.2-5.1-6.5-45.5c-3.5-6.3-14.6-3.5-15.3-8.3c-2-12.9,12.5-30.4,8.7-45.5
		c-2.7-10.6,16-15.4,29.8-17.2c22.7-3,59.6,14.9,40.7,63.2c-4.5,11.6-11.5,18.1-14.6,52.1c-1.1,12.1-4.2,61.7-31.8,78.5
		C2564.8,952.8,2583.2,912.7,2571.8,896.3z" clip-rule="evenodd" class="colorf6cbad svgShape"></path><path fill="#e28d0d" fill-rule="evenodd" d="M2479.2,2183.7c0,0,23.9,20.7,25.8,35.5c1.9,14.9-5.2,28.4-5.8,43.9c-0.6,13.6-1.6,58.2-1.9,68.8h-8.5
		l-0.6-64.6c-22.2-26.3-50.6,58.5-81.8,64.6h-110.6c-0.2-44.4,89.9-10.5,131-84C2433.1,2236.8,2454.6,2192.5,2479.2,2183.7z" clip-rule="evenodd" class="colore2480d svgShape"></path><path fill="#f6d9ad" fill-rule="evenodd" d="M2502,1466.4l9.7,65.7l46.9,260.1c12.7,51.3,48.8,86.5,101.5,99.4c150.1,22.3,289.7,32.9,439.8,55.2
		c38.3,14.9,63.1,63.3,68.4,110c28.1-81-28-177-86.2-172c-47.4,4-92.5-101.2-388.2-134c-81.3-32.5,119.1-247.9,33.2-281L2502,1466.4
		z" clip-rule="evenodd" class="colorf6cbad svgShape"></path><path fill="#e28d0d" fill-rule="evenodd" d="M3082.2,1885.4c0,0,25.3-19,40.2-17.7c14.9,1.3,26.7,11.1,41.7,15c13.2,3.5,56.6,14,66.8,16.5l-1.8,8.3
		l-63.2-13.1c-30.5,16.1,46.4,61.9,45.7,93.6L3188,2096c-43.5-9.2,8.8-90.1-54.2-145.9C3124.3,1941.7,3085.5,1911.2,3082.2,1885.4z" clip-rule="evenodd" class="colore2480d svgShape"></path><path fill="#8526fe" fill-rule="evenodd" d="M2557.7,791.9c8.1,7.7,42.7-20.4,47.2,22.2c0.3,3.2-0.6,14.1,14.3,9.6c14.9-4.4,15.9,16.5-2.2,17.2
		c-7.6,0.3-3.4,42.4-0.8,40.7c21-31.7,60.4-58.7,23.7-107.3C2606.4,730,2540.6,761.7,2557.7,791.9z" clip-rule="evenodd" class="color00347f svgShape"></path><path fill="#f89500" fill-rule="evenodd" d="M2686,1182.3c1.7,18,6.6,33.6,12.8,48.6c-21,0.9-42.1,2.1-63.4,2.6c-37.4,0.9-74.8,1.6-112.2,2.8
		c4.4-12.9,8.9-25.9,13.3-38.7c7-23,3.7-64.8-0.3-83c-2.3-13.7-15.7-47-18.9-90.8c-2.7-36.2,20.6-116.7,41.3-123.1
		c-5.9,10-14.7,24-26.5,77c14.1-4.2,31.2-0.2,43.1,9c13.9-12.6,27.5-24.9,52.1-15.3c-0.1-34.1,10-55.2,31.2-67.1
		c6.5,1.5,11.7,3,14.2,4.3c-16.1,6.4-23.3,45.1,2.4,90.8c11.4,16.9,19.1,17.4,39.6,35.1C2710.2,1080.8,2683.6,1157,2686,1182.3z" clip-rule="evenodd" class="colorf8c800 svgShape"></path><path fill="#e88c00" fill-rule="evenodd" d="M2714.8,1034.6c-20.5-17.7-28.2-18.2-39.6-35.1c-6-10.7-10.3-21.1-13-30.7c-4.5,14.3-10.2,28.3-17.4,41.9
		c-13.3,41-36.1,76.5-68.4,106.4c-11.3,12.1-23.3,22.9-36.1,32.3c0.8,17.1,0.1,35.6-3.8,48.3c-4.5,12.9-8.9,25.8-13.3,38.7
		c37.4-1.2,74.8-1.9,112.2-2.8c21.3-0.5,42.4-1.7,63.4-2.6c-6.2-15-11.1-30.6-12.8-48.6C2683.6,1157,2710.2,1080.8,2714.8,1034.6z" clip-rule="evenodd" class="colore8ab00 svgShape"></path><path fill="#e28d0d" fill-rule="evenodd" d="M2615,1210.6c24.8-2.1,49.6-5.1,74.3-8.5c7.9,33.2,25.7,59.5,38.1,93.7c34.5,95.1,33.7,190.3,33.7,331.9
		c-59.2,60.9-297.9,128.1-372.6,94.7c17.2-136.3,92.1-362.5,143.6-511.7C2559.4,1212.7,2586.7,1213,2615,1210.6z" clip-rule="evenodd" class="colore2480d svgShape"></path><path fill="#ce7c00" fill-rule="evenodd" d="M2558.6,1212c18.6,0.5,37.3,0.3,56.4-1.4c24.8-2.1,49.6-5.1,74.3-8.5c7.9,33.2,25.7,59.5,38.1,93.7
		c34.5,95.1,33.7,190.3,33.7,331.9c-35.6,26.8-108,66.3-186.3,84.2C2665,1567.8,2671.3,1346.5,2558.6,1212z" clip-rule="evenodd" class="colorce3000 svgShape"></path><path fill="#f6d9ad" fill-rule="evenodd" d="M2666.5,909c0,0,117.1,9.3,109.5,293.5c-0.6,20.7-59,44.4-83-5.3c-22.5-46.5-42.4-152.2-45.7-204.3
		C2644,940.1,2646.7,915.7,2666.5,909z" clip-rule="evenodd" class="colorf6cbad svgShape"></path><path fill="#f6d9ad" fill-rule="evenodd" d="M2700.2,1135.9l-317.8,119.8c-5.6,31.1,1.6,40.5,15.8,43c94-2.3,256.2-10.7,366.6-76.1
			C2786.4,1209.8,2783.2,1127.9,2700.2,1135.9z" clip-rule="evenodd" class="colorf6cbad svgShape"></path><path fill="#f6d9ad" fill-rule="evenodd" d="M2415.1,1244.8l-67.4,15.7c-12.5-7.2-34.8-14.1-49-9.1c-4.6,5,35.5,9.6,30.2,13.9
			c-13.4,10.9-53.2-1.7-51.8,6.4c6.4,35.9,15.1,33.3,55.7,33c25.6-0.7,62.5-6.4,70.6-6.1L2415.1,1244.8z" clip-rule="evenodd" class="colorf6cbad svgShape"></path><path fill="none" stroke="#ffffff" stroke-linecap="round" stroke-linejoin="round" stroke-miterlimit="10" stroke-width=".496" d="M2558.6 1212c0 0-135.6 354.1-79.5 519.4M2605.1 1221.4c0 0-52.2 368.9-18.7 482.7M2659.9 1241.6c0 0 41.6 331.3 14.2 436.2M2683.4 1247.9c0 0 65.3 137 63.7 392" clip-rule="evenodd" class="colorStrokeffffff svgStroke"></path><rect width="18.7" height="1212.7" x="2223.3" y="860.1" fill="#ffffff" fill-rule="evenodd" clip-rule="evenodd" transform="rotate(18.73 2232.55 1466.354)" class="colorffffff svgShape"></rect><path fill="#8526fe" fill-rule="evenodd" d="M2171.3,2085.9l-266.8-90.5v0c4.1-12.1,17.2-18.6,29.3-14.5l223,75.6
			C2168.9,2060.7,2175.4,2073.8,2171.3,2085.9L2171.3,2085.9z" clip-rule="evenodd" class="color00347f svgShape"></path><rect width="55.9" height="23.1" x="2021.1" y="1996.2" fill="#e28d0d" fill-rule="evenodd" clip-rule="evenodd" transform="rotate(18.73 2049.04 2007.734)" class="colore2480d svgShape"></rect><path fill="#e28d0d" fill-rule="evenodd" d="M2478.3,899.2l-71.1,12.9c-10,1.8-19.5-4.8-21.4-14.8l0,0c-1.8-10,4.8-19.5,14.8-21.4l71.1-12.9L2478.3,899.2
			z" clip-rule="evenodd" class="colore2480d svgShape"></path><path fill="#8526fe" fill-rule="evenodd" d="M2514.3,870.8c2.6,14.2-6.8,27.8-21,30.4c-14.2,2.6-27.8-6.8-30.4-21c-2.6-14.2,6.8-27.8,21-30.4
			C2498.2,847.3,2511.8,856.7,2514.3,870.8z" clip-rule="evenodd" class="color00347f svgShape"></path><path fill="#d8a353" fill-rule="evenodd" d="M2731.4 1240c0 0-6.7-66.8 15.7-70.1 22.4-3.4 29.3 8.2 29.3 8.2s3 25.8-6.1 38.9C2761.3 1230.1 2731.4 1240 2731.4 1240zM2473.4 1221.4l63.2-23.7c0 0 4.5-24.1 4.1-36.9C2540.7 1160.7 2486.4 1152.8 2473.4 1221.4zM2429.7 1731.3c0 0-.6 73.4-43.5 80.7l-2.8-39.4c0 0 2.1-36 5.1-50.3C2388.5 1722.4 2409.9 1731.4 2429.7 1731.3zM2566.8 1816.3c0 0 69.9-.8 85.4 32.1s12 43.9 12 43.9S2599.2 1886.5 2566.8 1816.3z" clip-rule="evenodd" class="colorf4be99 svgShape"></path><path fill="none" stroke="#38007f" stroke-linecap="round" stroke-linejoin="round" stroke-miterlimit="10" stroke-width="1.323" d="M2577.3,858.5c0,0,12.8,14.2,21.5-9.1" clip-rule="evenodd" class="colorStroke00347f svgStroke"></path><line x1="2501.7" x2="2519.9" y1="1104.1" y2="1122.2" fill="none" stroke="#38007f" stroke-linecap="round" stroke-linejoin="round" stroke-miterlimit="10" stroke-width="1.323" clip-rule="evenodd" class="colorStroke00347f svgStroke"></line><path fill="none" stroke="#38007f" stroke-linecap="round" stroke-linejoin="round" stroke-miterlimit="10" stroke-width="1.323" d="M2674.7,1145.5l25.5-9.6c0,0,45.6-5,60.9,18.6" clip-rule="evenodd" class="colorStroke00347f svgStroke"></path><line x1="2431.9" x2="2377.2" y1="907.6" y2="1069" fill="none" stroke="#38007f" stroke-linecap="round" stroke-linejoin="round" stroke-miterlimit="10" stroke-width="1.323" clip-rule="evenodd" class="colorStroke00347f svgStroke"></line><polyline fill="none" stroke="#00347f" stroke-linecap="round" stroke-linejoin="round" stroke-miterlimit="10" stroke-width="1.323" points="2282 1291.7 2296.2 1304 2064.6 1991" clip-rule="evenodd"></polyline><path fill="none" stroke="#38007f" stroke-linecap="round" stroke-linejoin="round" stroke-miterlimit="10" stroke-width="1.323" d="M2388.5 1722.4c0 0 37.5 21.7 113.6 2.9l-4.9 20.4c0 0 19.2 158.2-1 302.8M2545.4 1718.9c0 0 85.3-16.8 138-45.5" clip-rule="evenodd" class="colorStroke00347f svgStroke"></path><line x1="2694.1" x2="2659.9" y1="1751" y2="1761.7" fill="none" stroke="#38007f" stroke-linecap="round" stroke-linejoin="round" stroke-miterlimit="10" stroke-width="1.323" clip-rule="evenodd" class="colorStroke00347f svgStroke"></line><path fill="none" stroke="#ffffff" stroke-linecap="round" stroke-linejoin="round" stroke-miterlimit="10" stroke-width=".661" d="M2472.3 876.4c0 0-2.8-19.7 22.2-21.9M2683.5 762c0 0 22.8-2.4 46.9-39.5 24.1-37.1 43.2-34.7 70-37.7 26.8-3 34.1-57.2 91.3-56.6" clip-rule="evenodd" class="colorStrokeffffff svgStroke"></path><path fill="none" stroke="#38007f" stroke-linecap="round" stroke-linejoin="round" stroke-miterlimit="10" stroke-width="1.323" d="M2755,752c0,0,24-14.3,62.4,0c38.4,14.3,159.8-2.1,152.5-58.3" clip-rule="evenodd" class="colorStroke00347f svgStroke"></path><path fill="#ffffff" fill-rule="evenodd" d="M2542.2 1654.1c0 10.5-8.5 18.9-18.9 18.9-10.5 0-19-8.5-19-18.9 0-10.5 8.5-19 19-19C2533.7 1635.2 2542.2 1643.7 2542.2 1654.1zM2658.4 1616.2c0 10.5-8.5 19-19 19s-18.9-8.5-18.9-19c0-10.5 8.5-18.9 18.9-18.9S2658.4 1605.8 2658.4 1616.2zM2743.3 1580.7c0 10.5-8.5 18.9-19 18.9-10.5 0-18.9-8.5-18.9-18.9 0-10.5 8.5-19 18.9-19C2734.8 1561.8 2743.3 1570.3 2743.3 1580.7zM2453 1673.1c0 10.5-8.5 19-18.9 19-10.5 0-19-8.5-19-19 0-10.5 8.5-18.9 19-18.9C2444.5 1654.1 2453 1662.6 2453 1673.1z" clip-rule="evenodd" class="colorffffff svgShape"></path><line x1="2290" x2="2309.3" y1="1268.1" y2="1269.3" fill="none" stroke="#38007f" stroke-linecap="round" stroke-linejoin="round" stroke-miterlimit="10" stroke-width="1.323" clip-rule="evenodd" class="colorStroke00347f svgStroke"></line><line x1="2462.5" x2="2404.6" y1="871.6" y2="881.7" fill="none" stroke="#ffffff" stroke-linecap="round" stroke-linejoin="round" stroke-miterlimit="10" stroke-width=".661" class="colorStrokeffffff svgStroke"></line><path fill="none" stroke="#e28d0d" stroke-linecap="round" stroke-linejoin="round" stroke-miterlimit="10" stroke-width="1.323" d="M2385.9,897.3c0,0-203.3,56-110.8,293.8" class="colorStrokee2480d svgStroke"></path><line x1="2385.9" x2="2365.4" y1="983.7" y2="1045.7" fill="none" stroke="#38007f" stroke-linecap="round" stroke-linejoin="round" stroke-miterlimit="10" stroke-width="1.323" class="colorStroke00347f svgStroke"></line><path fill="none" stroke="#38007f" stroke-linecap="round" stroke-linejoin="round" stroke-miterlimit="10" stroke-width=".661" d="M2532.2,977.8c0,0,15-6.5,43.1,9c0,0,32.8-26.7,52.1-15.3" class="colorStroke00347f svgStroke"></path><path fill="none" stroke="#38007f" stroke-linecap="round" stroke-linejoin="round" stroke-miterlimit="10" stroke-width="1.323" d="M2406.4 2332c0 0 14.8.5 43.3-43.2 28.5-43.7 38.5-21.4 38.5-21.4M3211.6 1987.9c0 0 1.9-13.6-26-43.6-27.8-30-32.6-42.1-19.7-50" clip-rule="evenodd" class="colorStroke00347f svgStroke"></path><path fill="#8526fe" fill-rule="evenodd" d="M2424.4 2274.5L2424.4 2274.5c-1.8 2.8-5.6 3.7-8.4 1.8l-29.8-19.1c-2.8-1.8-3.7-5.6-1.8-8.4l0 0c1.8-2.8 5.6-3.7 8.4-1.8l29.8 19.1C2425.4 2267.9 2426.3 2271.7 2424.4 2274.5zM3111.4 1973.8L3111.4 1973.8c-2.8-1.8-3.7-5.6-1.8-8.4l19.1-29.8c1.8-2.8 5.6-3.7 8.4-1.8l0 0c2.8 1.8 3.7 5.6 1.8 8.4l-19.1 29.8C3118 1974.8 3114.2 1975.6 3111.4 1973.8z" clip-rule="evenodd" class="color00347f svgShape"></path></g><line x1="532.6" x2="4014.7" y1="2339.3" y2="2339.3" fill="none" stroke="#38007f" stroke-linecap="round" stroke-linejoin="round" stroke-miterlimit="10" clip-rule="evenodd" class="colorStroke00347f svgStroke"></line></svg>